<mxfile host="65bd71144e">
    <diagram id="wiwo60dCCxuE_jzB91VQ" name="Page-1">
        <mxGraphModel dx="1242" dy="563" grid="1" gridSize="10" guides="1" tooltips="1" connect="1" arrows="1" fold="1" page="1" pageScale="1" pageWidth="850" pageHeight="1100" math="0" shadow="0">
            <root>
                <mxCell id="0"/>
                <mxCell id="1" parent="0"/>
                <mxCell id="3" value="" style="rounded=0;whiteSpace=wrap;html=1;" parent="1" vertex="1">
                    <mxGeometry x="620" y="385" width="200" height="160" as="geometry"/>
                </mxCell>
                <mxCell id="4" value="" style="rounded=0;whiteSpace=wrap;html=1;" parent="1" vertex="1">
                    <mxGeometry x="620" y="70" width="200" height="160" as="geometry"/>
                </mxCell>
                <mxCell id="5" value="" style="rounded=0;whiteSpace=wrap;html=1;" parent="1" vertex="1">
                    <mxGeometry x="40" y="145" width="200" height="160" as="geometry"/>
                </mxCell>
                <mxCell id="6" value="" style="whiteSpace=wrap;html=1;aspect=fixed;direction=south;fillColor=#990000;" parent="1" vertex="1">
                    <mxGeometry x="80" y="240" width="40" height="40" as="geometry"/>
                </mxCell>
                <mxCell id="7" value="" style="whiteSpace=wrap;html=1;aspect=fixed;" parent="1" vertex="1">
                    <mxGeometry x="380" y="305" width="80" height="80" as="geometry"/>
                </mxCell>
                <mxCell id="8" value="&lt;h2&gt;&lt;font style=&quot;font-size: 18px;&quot;&gt;FRONT-END SERVICE&lt;/font&gt;&lt;/h2&gt;" style="text;strokeColor=none;align=center;fillColor=none;html=1;verticalAlign=middle;whiteSpace=wrap;rounded=0;" parent="1" vertex="1">
                    <mxGeometry x="50" y="110" width="210" height="30" as="geometry"/>
                </mxCell>
                <mxCell id="9" value="REDIS WORKSPACE" style="text;strokeColor=none;align=center;fillColor=none;html=1;verticalAlign=middle;whiteSpace=wrap;rounded=0;" parent="1" vertex="1">
                    <mxGeometry x="30" y="210" width="150" height="30" as="geometry"/>
                </mxCell>
                <mxCell id="10" value="" style="rounded=0;whiteSpace=wrap;html=1;" parent="1" vertex="1">
                    <mxGeometry x="620" y="70" width="200" height="80" as="geometry"/>
                </mxCell>
                <mxCell id="11" value="" style="rounded=0;whiteSpace=wrap;html=1;" parent="1" vertex="1">
                    <mxGeometry x="620" y="150" width="200" height="80" as="geometry"/>
                </mxCell>
                <mxCell id="12" value="&lt;h2&gt;CATALOG SERVICE&lt;/h2&gt;" style="text;strokeColor=none;align=center;fillColor=none;html=1;verticalAlign=middle;whiteSpace=wrap;rounded=0;" parent="1" vertex="1">
                    <mxGeometry x="615" y="30" width="210" height="30" as="geometry"/>
                </mxCell>
                <mxCell id="13" value="" style="shape=cylinder3;whiteSpace=wrap;html=1;boundedLbl=1;backgroundOutline=1;size=15;fillColor=#00CCCC;" parent="1" vertex="1">
                    <mxGeometry x="750" y="115" width="60" height="70" as="geometry"/>
                </mxCell>
                <mxCell id="14" value="" style="whiteSpace=wrap;html=1;aspect=fixed;direction=south;fillColor=#990000;" parent="1" vertex="1">
                    <mxGeometry x="680" y="105" width="40" height="40" as="geometry"/>
                </mxCell>
                <mxCell id="15" value="REDIS WORKSPACE" style="text;strokeColor=none;align=center;fillColor=none;html=1;verticalAlign=middle;whiteSpace=wrap;rounded=0;" parent="1" vertex="1">
                    <mxGeometry x="630" y="75" width="150" height="30" as="geometry"/>
                </mxCell>
                <mxCell id="16" value="" style="whiteSpace=wrap;html=1;aspect=fixed;direction=south;fillColor=#990000;" parent="1" vertex="1">
                    <mxGeometry x="660" y="180" width="40" height="40" as="geometry"/>
                </mxCell>
                <mxCell id="17" value="REDIS WORKSPACE" style="text;strokeColor=none;align=center;fillColor=none;html=1;verticalAlign=middle;whiteSpace=wrap;rounded=0;" parent="1" vertex="1">
                    <mxGeometry x="610" y="150" width="150" height="30" as="geometry"/>
                </mxCell>
                <mxCell id="18" value="" style="shape=flexArrow;endArrow=classic;startArrow=classic;html=1;entryX=0.5;entryY=1;entryDx=0;entryDy=0;strokeColor=#00CC00;fillColor=#00CC00;" parent="1" source="6" target="16" edge="1">
                    <mxGeometry width="100" height="100" relative="1" as="geometry">
                        <mxPoint x="500" y="310" as="sourcePoint"/>
                        <mxPoint x="600" y="210" as="targetPoint"/>
                        <Array as="points"/>
                    </mxGeometry>
                </mxCell>
                <mxCell id="19" value="" style="shape=flexArrow;endArrow=classic;html=1;entryX=0.5;entryY=1;entryDx=0;entryDy=0;strokeColor=#00FF00;fillColor=#00CC00;" parent="1" target="14" edge="1">
                    <mxGeometry width="50" height="50" relative="1" as="geometry">
                        <mxPoint x="370" y="230" as="sourcePoint"/>
                        <mxPoint x="580" y="230" as="targetPoint"/>
                        <Array as="points"/>
                    </mxGeometry>
                </mxCell>
                <mxCell id="20" value="&lt;h3&gt;SAME REDIS CLIENT&lt;/h3&gt;" style="text;strokeColor=#660000;align=center;fillColor=none;html=1;verticalAlign=middle;whiteSpace=wrap;rounded=0;rotation=0;" parent="1" vertex="1">
                    <mxGeometry x="275" y="245" width="150" height="30" as="geometry"/>
                </mxCell>
                <mxCell id="27" style="edgeStyle=none;html=1;exitX=1;exitY=0;exitDx=0;exitDy=0;strokeColor=#00CC00;fillColor=#00CC00;" parent="1" source="21" target="13" edge="1">
                    <mxGeometry relative="1" as="geometry"/>
                </mxCell>
                <mxCell id="21" value="SERVER 1" style="text;strokeColor=none;align=center;fillColor=none;html=1;verticalAlign=middle;whiteSpace=wrap;rounded=0;" parent="1" vertex="1">
                    <mxGeometry x="725" y="190" width="110" height="30" as="geometry"/>
                </mxCell>
                <mxCell id="22" value="SERVER 2" style="text;strokeColor=none;align=center;fillColor=none;html=1;verticalAlign=middle;whiteSpace=wrap;rounded=0;" parent="1" vertex="1">
                    <mxGeometry x="725" y="90" width="110" height="30" as="geometry"/>
                </mxCell>
                <mxCell id="26" style="edgeStyle=none;html=1;exitX=0;exitY=0;exitDx=69.75;exitDy=21.5;exitPerimeter=0;entryX=0.875;entryY=-0.147;entryDx=0;entryDy=0;entryPerimeter=0;strokeColor=#00CC00;fillColor=#00CC00;" parent="1" source="25" target="21" edge="1">
                    <mxGeometry relative="1" as="geometry"/>
                </mxCell>
                <mxCell id="25" value="" style="html=1;shadow=0;dashed=0;align=center;verticalAlign=middle;shape=mxgraph.arrows2.uTurnArrow;dy=11;arrowHead=43;dx2=25;fillColor=#0000CC;rotation=-180;" parent="1" vertex="1">
                    <mxGeometry x="810" y="110" width="100" height="100" as="geometry"/>
                </mxCell>
                <mxCell id="29" style="edgeStyle=none;html=1;exitX=0.75;exitY=1;exitDx=0;exitDy=0;strokeColor=#00CC00;fillColor=#00CC00;" parent="1" source="28" target="25" edge="1">
                    <mxGeometry relative="1" as="geometry"/>
                </mxCell>
                <mxCell id="28" value="SHYNCRONIZED DATA BASE" style="text;strokeColor=none;align=center;fillColor=none;html=1;verticalAlign=middle;whiteSpace=wrap;rounded=0;rotation=30;" parent="1" vertex="1">
                    <mxGeometry x="835" y="120" width="220" height="30" as="geometry"/>
                </mxCell>
                <mxCell id="30" value="&lt;h2&gt;Nginx container&lt;/h2&gt;" style="text;strokeColor=none;align=center;fillColor=none;html=1;verticalAlign=middle;whiteSpace=wrap;rounded=0;" parent="1" vertex="1">
                    <mxGeometry x="350" y="400" width="150" height="30" as="geometry"/>
                </mxCell>
                <mxCell id="31" value="" style="html=1;shadow=0;dashed=0;align=center;verticalAlign=middle;shape=mxgraph.arrows2.sharpArrow;dy1=0.67;dx1=18;dx2=18;notch=0;strokeColor=#660000;fillColor=#0000CC;rotation=30;" parent="1" vertex="1">
                    <mxGeometry x="215.31" y="322.5" width="170" height="30" as="geometry"/>
                </mxCell>
                <mxCell id="33" value="&lt;h2&gt;Order service&lt;/h2&gt;" style="text;strokeColor=none;align=center;fillColor=none;html=1;verticalAlign=middle;whiteSpace=wrap;rounded=0;" parent="1" vertex="1">
                    <mxGeometry x="580" y="550" width="260" height="30" as="geometry"/>
                </mxCell>
                <mxCell id="34" value="LOAD BALANCER" style="rounded=1;whiteSpace=wrap;html=1;strokeColor=#660000;fontSize=18;fillColor=#18141D;" parent="1" vertex="1">
                    <mxGeometry x="345" y="450" width="165" height="40" as="geometry"/>
                </mxCell>
                <mxCell id="35" value="REQUEST" style="text;strokeColor=none;align=center;fillColor=none;html=1;verticalAlign=middle;whiteSpace=wrap;rounded=0;fontSize=18;rotation=30;" parent="1" vertex="1">
                    <mxGeometry x="215.31" y="340" width="114.69" height="30" as="geometry"/>
                </mxCell>
                <mxCell id="36" value="" style="html=1;shadow=0;dashed=0;align=center;verticalAlign=middle;shape=mxgraph.arrows2.arrow;dy=0.67;dx=45.56;direction=north;notch=0;strokeColor=#660000;fontSize=18;fillColor=#FFFF00;rotation=45;" parent="1" vertex="1">
                    <mxGeometry x="545.36" y="74.64" width="30" height="270" as="geometry"/>
                </mxCell>
                <mxCell id="37" value="" style="html=1;shadow=0;dashed=0;align=center;verticalAlign=middle;shape=mxgraph.arrows2.arrow;dy=0.67;dx=45.56;direction=north;notch=0;strokeColor=#660000;fontSize=18;fillColor=#FFFF00;rotation=75;" parent="1" vertex="1">
                    <mxGeometry x="618.83" y="103.35" width="30" height="360" as="geometry"/>
                </mxCell>
                <mxCell id="39" value="server 1" style="rounded=0;whiteSpace=wrap;html=1;strokeColor=#660000;fontSize=18;fillColor=#333333;" parent="1" vertex="1">
                    <mxGeometry x="618.83" y="385" width="201.17" height="75" as="geometry"/>
                </mxCell>
                <mxCell id="40" value="server 2" style="rounded=0;whiteSpace=wrap;html=1;strokeColor=#660000;fontSize=18;fillColor=#333333;" parent="1" vertex="1">
                    <mxGeometry x="620" y="463.35" width="201.17" height="75" as="geometry"/>
                </mxCell>
                <mxCell id="41" value="" style="html=1;shadow=0;dashed=0;align=center;verticalAlign=middle;shape=mxgraph.arrows2.arrow;dy=0.67;dx=45.56;direction=north;notch=0;strokeColor=#660000;fontSize=18;fillColor=#330066;rotation=-60;" parent="1" vertex="1">
                    <mxGeometry x="524.57" y="327.21" width="29.66" height="207.41" as="geometry"/>
                </mxCell>
                <mxCell id="43" value="" style="html=1;shadow=0;dashed=0;align=center;verticalAlign=middle;shape=mxgraph.arrows2.arrow;dy=0.67;dx=45.56;direction=north;notch=0;strokeColor=#660000;fontSize=18;fillColor=#330066;rotation=-72;" parent="1" vertex="1">
                    <mxGeometry x="524.23" y="300" width="30" height="160" as="geometry"/>
                </mxCell>
                <mxCell id="44" value="REQUEST TO UPDATE DB" style="text;html=1;align=center;verticalAlign=middle;resizable=0;points=[];autosize=1;strokeColor=none;fillColor=none;fontSize=18;" parent="1" vertex="1">
                    <mxGeometry x="470" y="325" width="250" height="40" as="geometry"/>
                </mxCell>
                <mxCell id="45" style="edgeStyle=none;html=1;entryX=0.265;entryY=0.655;entryDx=0;entryDy=0;entryPerimeter=0;strokeColor=#00CC00;fontSize=18;fillColor=#00CC00;" parent="1" source="44" target="43" edge="1">
                    <mxGeometry relative="1" as="geometry"/>
                </mxCell>
                <mxCell id="51" style="edgeStyle=none;html=1;exitX=1;exitY=0.5;exitDx=0;exitDy=0;exitPerimeter=0;" edge="1" parent="1" source="48" target="6">
                    <mxGeometry relative="1" as="geometry"/>
                </mxCell>
                <mxCell id="48" value="" style="html=1;shadow=0;dashed=0;align=center;verticalAlign=middle;shape=mxgraph.arrows2.tailedNotchedArrow;dy1=10;dx1=20;notch=20;arrowHead=20;dx2=25;dy2=30;rotation=-185;fillColor=#CC00CC;" vertex="1" parent="1">
                    <mxGeometry x="170.21" y="138.92" width="449.96" height="60" as="geometry"/>
                </mxCell>
                <mxCell id="49" value="&lt;h2&gt;INVALIDATE CACHE&amp;nbsp;&lt;/h2&gt;" style="text;html=1;align=center;verticalAlign=middle;resizable=0;points=[];autosize=1;strokeColor=none;fillColor=none;rotation=-5;" vertex="1" parent="1">
                    <mxGeometry x="315" y="100" width="200" height="60" as="geometry"/>
                </mxCell>
            </root>
        </mxGraphModel>
    </diagram>
</mxfile>